<svg xmlns="http://www.w3.org/2000/svg" width="512" height="512" viewBox="0 0 512 512"><path fill="#008cdb" d="M368.6 261.3c14.3 0 28.6 1.8 42.8 5.7 22.5 6.4 38.5 19.4 48.9 35.1l-.9-1.7-90.7-183c-6.2-9.9-17-14.1-28.6-14.1-12.9 0-26.8 5.2-36.8 13.6l-242 202.7c-22 18.9-23.3 52.5-2.9 72.8 9.7 9.7 22.4 14.6 35.2 14.6 11 0 21.9-3.6 31.1-11l22.4-17.7 1-.8c53.4-55.4 137-116.2 220.5-116.2zm86.6 53.4l-4.3-6.4c-10-15-24.3-25.3-42.5-30.4-12.7-3.5-26.1-5.3-39.8-5.3-83.2 0-162.1 64.4-198.5 99 48.5-13 161.6-34.2 236.4 25.5 49.7 39.6 80.1-28.9 48.7-82.4z"/></svg>